:FULLY-SPECIFIED
:FORCE-ALL-JOINTS-BE-3DOF
:DEGREES
544
root 7.63733 15.0502 -3.79852 -177.138 53.8957 -180.815
lfemur -29.1519 -2.49308 -18.625
ltibia 75.0669 0 0
lfoot -34.9459 -3.7156 0
ltoes -7.17223 0 0
rfemur -46.3133 0.367907 -3.22032
rtibia 47.5101 0 0
rfoot 5.06815 5.6054 0
rtoes -38.8049 0 0
lowerback 11.4449 0.124642 0.775891
upperback 5.02324 0.915154 6.04466
thorax -1.24815 0.624855 5.75655
lowerneck -3.75736 -15.5315 -5.85663
upperneck 10.7439 -20.9243 6.35718
head 5.14548 -10.1343 1.46185
lclavicle 1.72622e-14 2.97538e-15 0
lhumerus -44.8171 -16.9107 106.955
lradius 56.5656 0 0
lwrist 23.5956 0 0
lhand -22.1953 -6.13484 0
lfingers 7.12502 0 0
lthumb 4.21948 23.77 0
rclavicle 1.72622e-14 2.97538e-15 0
rhumerus 16.5709 13.9954 -79.4249
rradius 136.08 0 0
rwrist -46.9464 0 0
rhand -26.4188 -22.1311 0
rfingers 7.12502 0 0
rthumb 0.141253 -772.108 0
545
root 7.67187 15.043 -3.7717 -177.218 53.7767 -180.893
lfemur -29.0862 -2.30806 -18.4002
ltibia 75.0454 0 0
lfoot -35.1586 -4.17512 0
ltoes -7.11712 0 0
rfemur -46.266 0.263732 -3.06915
rtibia 47.6907 0 0
rfoot 4.69717 5.29946 0
rtoes -38.6844 0 0
lowerback 11.3848 0.0650314 0.705602
upperback 5.01942 0.81908 5.9801
thorax -1.21018 0.57381 5.74015
lowerneck -3.64709 -15.4885 -5.79784
upperneck 10.5764 -20.8745 6.41632
head 5.07257 -10.1132 1.49242
lclavicle 2.07762e-14 5.74554e-15 0
lhumerus -44.8872 -16.3129 106.545
lradius 56.3111 0 0
lwrist 23.8578 0 0
lhand -22.4447 -6.06298 0
lfingers 7.12502 0 0
lthumb 3.97871 23.8468 0
rclavicle 2.07762e-14 5.74554e-15 0
rhumerus 16.6593 14.2267 -79.5123
rradius 135.997 0 0
rwrist -46.7604 0 0
rhand -26.4955 -22.0827 0
rfingers 7.12502 0 0
rthumb 0.0671759 -772.059 0
546
root 7.70641 15.0358 -3.74489 -177.298 53.6577 -180.971
lfemur -29.0204 -2.12304 -18.1755
ltibia 75.0239 0 0
lfoot -35.3713 -4.63464 0
ltoes -7.06201 0 0
rfemur -46.2187 0.159557 -2.91798
rtibia 47.8713 0 0
rfoot 4.32618 4.99352 0
rtoes -38.564 0 0
lowerback 11.3247 0.00542026 0.635313
upperback 5.0156 0.723006 5.91555
thorax -1.17221 0.522764 5.72374
lowerneck -3.53681 -15.4455 -5.73905
upperneck 10.4089 -20.8248 6.47547
head 4.99967 -10.0921 1.52299
lclavicle 2.42902e-14 8.5157e-15 0
lhumerus -44.9572 -15.7152 106.135
lradius 56.0566 0 0
lwrist 24.1201 0 0
lhand -22.694 -5.99112 0
lfingers 7.12502 0 0
lthumb 3.73794 23.9236 0
rclavicle 2.42902e-14 8.5157e-15 0
rhumerus 16.7476 14.458 -79.5997
rradius 135.913 0 0
rwrist -46.5744 0 0
rhand -26.5722 -22.0342 0
rfingers 7.12502 0 0
rthumb -0.00690077 -772.011 0
547
root 7.74095 15.0286 -3.71807 -177.378 53.5387 -181.049
lfemur -28.9547 -1.93802 -17.9508
ltibia 75.0025 0 0
lfoot -35.584 -5.09416 0
ltoes -7.0069 0 0
rfemur -46.1714 0.0553819 -2.76681
rtibia 48.052 0 0
rfoot 3.9552 4.68758 0
rtoes -38.4435 0 0
lowerback 11.2647 -0.0541908 0.565023
upperback 5.01178 0.626932 5.85099
thorax -1.13424 0.471719 5.70734
lowerneck -3.42654 -15.4026 -5.68026
upperneck 10.2414 -20.775 6.53461
head 4.92676 -10.0709 1.55356
lclavicle 2.78042e-14 1.12859e-14 0
lhumerus -45.0273 -15.1175 105.725
lradius 55.8021 0 0
lwrist 24.3823 0 0
lhand -22.9434 -5.91925 0
lfingers 7.12502 0 0
lthumb 3.49717 24.0004 0
rclavicle 2.78042e-14 1.12859e-14 0
rhumerus 16.8359 14.6893 -79.6871
rradius 135.83 0 0
rwrist -46.3884 0 0
rhand -26.6489 -21.9858 0
rfingers 7.12502 0 0
rthumb -0.0809775 -771.963 0
548
root 7.77549 15.0214 -3.69125 -177.458 53.4197 -181.128
lfemur -28.889 -1.753 -17.726
ltibia 74.981 0 0
lfoot -35.7967 -5.55368 0
ltoes -6.95179 0 0
rfemur -46.1241 -0.0487932 -2.61564
rtibia 48.2326 0 0
rfoot 3.58421 4.38165 0
rtoes -38.323 0 0
lowerback 11.2046 -0.113802 0.494734
upperback 5.00796 0.530858 5.78643
thorax -1.09626 0.420674 5.69094
lowerneck -3.31627 -15.3596 -5.62147
upperneck 10.0739 -20.7252 6.59375
head 4.85385 -10.0498 1.58412
lclavicle 3.13182e-14 1.4056e-14 0
lhumerus -45.0974 -14.5198 105.316
lradius 55.5477 0 0
lwrist 24.6445 0 0
lhand -23.1927 -5.84739 0
lfingers 7.12502 0 0
lthumb 3.25639 24.0772 0
rclavicle 3.13182e-14 1.4056e-14 0
rhumerus 16.9243 14.9206 -79.7745
rradius 135.747 0 0
rwrist -46.2025 0 0
rhand -26.7256 -21.9374 0
rfingers 7.12502 0 0
rthumb -0.155054 -771.914 0
549
root 7.81003 15.0142 -3.66444 -177.538 53.3007 -181.206
lfemur -28.8233 -1.56798 -17.5013
ltibia 74.9595 0 0
lfoot -36.0094 -6.0132 0
ltoes -6.89668 0 0
rfemur -46.0768 -0.152968 -2.46447
rtibia 48.4132 0 0
rfoot 3.21323 4.07571 0
rtoes -38.2025 0 0
lowerback 11.1445 -0.173413 0.424445
upperback 5.00414 0.434784 5.72187
thorax -1.05829 0.369628 5.67453
lowerneck -3.20599 -15.3166 -5.56268
upperneck 9.90633 -20.6754 6.6529
head 4.78095 -10.0287 1.61469
lclavicle 3.48322e-14 1.68262e-14 0
lhumerus -45.1675 -13.9221 104.906
lradius 55.2932 0 0
lwrist 24.9068 0 0
lhand -23.4421 -5.77553 0
lfingers 7.12502 0 0
lthumb 3.01562 24.154 0
rclavicle 3.48322e-14 1.68262e-14 0
rhumerus 17.0126 15.1519 -79.8619
rradius 135.664 0 0
rwrist -46.0165 0 0
rhand -26.8023 -21.8889 0
rfingers 7.12502 0 0
rthumb -0.229131 -771.866 0
550
root 7.84457 15.007 -3.63762 -177.618 53.1817 -181.284
lfemur -28.7575 -1.38296 -17.2765
ltibia 74.9381 0 0
lfoot -36.2221 -6.47272 0
ltoes -6.84158 0 0
rfemur -46.0295 -0.257144 -2.3133
rtibia 48.5938 0 0
rfoot 2.84225 3.76977 0
rtoes -38.0821 0 0
lowerback 11.0844 -0.233024 0.354156
upperback 5.00031 0.33871 5.65732
thorax -1.02032 0.318583 5.65813
lowerneck -3.09572 -15.2737 -5.50388
upperneck 9.73881 -20.6257 6.71204
head 4.70804 -10.0075 1.64526
lclavicle 3.83462e-14 1.95963e-14 0
lhumerus -45.2375 -13.3244 104.496
lradius 55.0387 0 0
lwrist 25.169 0 0
lhand -23.6914 -5.70367 0
lfingers 7.12502 0 0
lthumb 2.77485 24.2308 0
rclavicle 3.83462e-14 1.95963e-14 0
rhumerus 17.101 15.3832 -79.9493
rradius 135.58 0 0
rwrist -45.8305 0 0
rhand -26.879 -21.8405 0
rfingers 7.12502 0 0
rthumb -0.303208 -771.817 0
551
root 7.87911 14.9998 -3.6108 -177.698 53.0627 -181.362
lfemur -28.6918 -1.19794 -17.0518
ltibia 74.9166 0 0
lfoot -36.4348 -6.93224 0
ltoes -6.78647 0 0
rfemur -45.9822 -0.361319 -2.16213
rtibia 48.7745 0 0
rfoot 2.47126 3.46383 0
rtoes -37.9616 0 0
lowerback 11.0243 -0.292635 0.283866
upperback 4.99649 0.242636 5.59276
thorax -0.982346 0.267538 5.64173
lowerneck -2.98545 -15.2307 -5.44509
upperneck 9.57129 -20.5759 6.77118
head 4.63513 -9.98641 1.67583
lclavicle 4.18602e-14 2.23665e-14 0
lhumerus -45.3076 -12.7267 104.086
lradius 54.7842 0 0
lwrist 25.4312 0 0
lhand -23.9408 -5.6318 0
lfingers 7.12502 0 0
lthumb 2.53408 24.3076 0
rclavicle 4.18602e-14 2.23665e-14 0
rhumerus 17.1893 15.6145 -80.0367
rradius 135.497 0 0
rwrist -45.6445 0 0
rhand -26.9557 -21.792 0
rfingers 7.12502 0 0
rthumb -0.377284 -771.769 0
552
root 7.91366 14.9926 -3.58399 -177.778 52.9437 -181.44
lfemur -28.6261 -1.01292 -16.8271
ltibia 74.8952 0 0
lfoot -36.6475 -7.39176 0
ltoes -6.73136 0 0
rfemur -45.9349 -0.465494 -2.01096
rtibia 48.9551 0 0
rfoot 2.10028 3.15789 0
rtoes -37.8411 0 0
lowerback 10.9643 -0.352246 0.213577
upperback 4.99267 0.146562 5.5282
thorax -0.944373 0.216492 5.62532
lowerneck -2.87517 -15.1878 -5.3863
upperneck 9.40377 -20.5261 6.83033
head 4.56223 -9.96527 1.7064
lclavicle 4.53742e-14 2.51367e-14 0
lhumerus -45.3777 -12.1289 103.676
lradius 54.5297 0 0
lwrist 25.6935 0 0
lhand -24.1901 -5.55994 0
lfingers 7.12502 0 0
lthumb 2.29331 24.3844 0
rclavicle 4.53742e-14 2.51367e-14 0
rhumerus 17.2776 15.8458 -80.1241
rradius 135.414 0 0
rwrist -45.4585 0 0
rhand -27.0324 -21.7436 0
rfingers 7.12502 0 0
rthumb -0.451361 -771.721 0
553
root 7.9482 14.9854 -3.55717 -177.858 52.8247 -181.519
lfemur -28.5604 -0.827895 -16.6023
ltibia 74.8737 0 0
lfoot -36.8602 -7.85128 0
ltoes -6.67625 0 0
rfemur -45.8876 -0.569669 -1.85978
rtibia 49.1357 0 0
rfoot 1.72929 2.85196 0
rtoes -37.7206 0 0
lowerback 10.9042 -0.411857 0.143288
upperback 4.98885 0.0504876 5.46364
thorax -0.906401 0.165447 5.60892
lowerneck -2.7649 -15.1448 -5.32751
upperneck 9.23624 -20.4763 6.88947
head 4.48932 -9.94414 1.73697
lclavicle 4.88882e-14 2.79068e-14 0
lhumerus -45.4478 -11.5312 103.266
lradius 54.2752 0 0
lwrist 25.9557 0 0
lhand -24.4395 -5.48808 0
lfingers 7.12502 0 0
lthumb 2.05253 24.4612 0
rclavicle 4.88882e-14 2.79068e-14 0
rhumerus 17.366 16.0771 -80.2115
rradius 135.331 0 0
rwrist -45.2726 0 0
rhand -27.1091 -21.6952 0
rfingers 7.12502 0 0
rthumb -0.525438 -771.672 0
554
root 7.98274 14.9782 -3.53035 -177.938 52.7056 -181.597
lfemur -28.4946 -0.642874 -16.3776
ltibia 74.8522 0 0
lfoot -37.0729 -8.3108 0
ltoes -6.62114 0 0
rfemur -45.8403 -0.673844 -1.70861
rtibia 49.3164 0 0
rfoot 1.35831 2.54602 0
rtoes -37.6002 0 0
lowerback 10.8441 -0.471469 0.0729985
upperback 4.98503 -0.0455865 5.39909
thorax -0.868429 0.114402 5.59252
lowerneck -2.65463 -15.1018 -5.26872
upperneck 9.06872 -20.4266 6.94861
head 4.41641 -9.923 1.76754
lclavicle 5.24022e-14 3.0677e-14 0
lhumerus -45.5178 -10.9335 102.856
lradius 54.0207 0 0
lwrist 26.2179 0 0
lhand -24.6888 -5.41621 0
lfingers 7.12502 0 0
lthumb 1.81176 24.538 0
rclavicle 5.24022e-14 3.0677e-14 0
rhumerus 17.4543 16.3084 -80.2989
rradius 135.247 0 0
rwrist -45.0866 0 0
rhand -27.1858 -21.6467 0
rfingers 7.12502 0 0
rthumb -0.599514 -771.624 0
555
root 8.01728 14.971 -3.50354 -178.018 52.5866 -181.675
lfemur -28.4289 -0.457853 -16.1529
ltibia 74.8308 0 0
lfoot -37.2856 -8.77032 0
ltoes -6.56603 0 0
rfemur -45.793 -0.778019 -1.55744
rtibia 49.497 0 0
rfoot 0.987324 2.24008 0
rtoes -37.4797 0 0
lowerback 10.784 -0.53108 0.00270916
upperback 4.98121 -0.141661 5.33453
thorax -0.830456 0.0633563 5.57611
lowerneck -2.54435 -15.0589 -5.20993
upperneck 8.9012 -20.3768 7.00776
head 4.34351 -9.90187 1.79811
lclavicle 5.59162e-14 3.34472e-14 0
lhumerus -45.5879 -10.3358 102.446
lradius 53.7662 0 0
lwrist 26.4802 0 0
lhand -24.9382 -5.34435 0
lfingers 7.12502 0 0
lthumb 1.57099 24.6148 0
rclavicle 5.59162e-14 3.34472e-14 0
rhumerus 17.5426 16.5397 -80.3863
rradius 135.164 0 0
rwrist -44.9006 0 0
rhand -27.2625 -21.5983 0
rfingers 7.12502 0 0
rthumb -0.673591 -771.576 0
